<?xml version="1.0" encoding="UTF-8"?>
<svg xmlns="http://www.w3.org/2000/svg" width="247" height="291" viewBox="0 0 247 291" fill="none">
	<path fill-rule="evenodd" clip-rule="evenodd" d="M184.642 188.044C182.693 180.437 180.901 177.212 177.439 174.568C174.2 172.095 169.473 170.018 162.576 168.501C155.392 167.237 155.189 163.479 153.387 157.44C152.862 155.625 150.258 155.142 149.134 156.45C148.975 156.278 148.81 156.121 148.639 155.978C148.792 155.112 147.54 152.631 147.581 151.803C148.018 143.158 145.208 138.817 138.195 137.203C136.67 136.852 126.311 136.645 124.824 137.059C118.322 138.868 111.923 144.611 112.902 151.529C110.861 154.213 108.864 155.851 105.716 156.716C98.7091 157.611 91.7032 158.407 84.6948 159.088C70.9761 161.254 58.1136 168.561 49.3224 179.218C48.5116 180.202 48.2773 181.537 48.993 182.586C48.4324 185.003 45.2768 190.864 47.7597 192.52C43.6767 202.347 34.2824 221.341 34.2648 226.768C34.1907 249.564 36.6378 279.237 58.9917 291.853C59.8868 292.738 60.0148 293.718 60.4023 295.035C61.3851 299.185 64.9543 302.151 68.8609 301.909C88.1055 302.34 106.745 299.977 125.99 299.863C134.477 299.812 144.684 301.087 152.056 301.936C159.429 302.786 166.871 302.034 173.947 299.863C174.543 300.808 175.749 301.358 176.973 301.087C184.308 299.62 190.239 295.072 195.405 290.101C196.983 287.211 203.149 278.977 200.698 276.11C202.92 266.66 202.804 256.506 198.857 247.507C199.416 245.857 198.396 244.044 198.857 242.341C199.19 241.108 200.043 240.598 200.472 239.378C201.077 237.66 200.419 235.355 199.739 233.603C199.46 232.729 200.252 231.789 200.472 230.897C201.516 226.693 199.126 227.063 197.402 224.252C197.428 224.244 197.876 222.237 197.874 222.247C198.138 220.815 197.477 218.979 196.9 217.783C196.511 216.975 195.676 216.469 194.846 216.562C195.682 213.708 196.738 211.333 197.874 208.584C199.883 203.737 202.427 199.096 205.312 194.709C206.493 192.913 204.906 190.832 202.994 190.709C196.806 190.314 190.685 189.417 184.642 188.044Z" fill="white">
	</path>
	<path fill-rule="evenodd" clip-rule="evenodd" d="M166.581 224.695C164.106 223.718 161.44 223.178 158.762 222.969C160.204 222.714 161.65 222.469 163.108 222.343C164.126 222.255 165.069 222.264 165.834 223.041C166.344 223.558 166.583 224.224 166.918 224.836C166.809 224.787 166.695 224.74 166.581 224.695ZM193.148 215.562C189.094 215.769 185.036 216.739 181.369 218.497C179.869 219.217 178.509 220.257 178.111 221.967C177.91 222.841 177.959 223.743 178.066 224.625C178.147 225.293 178.167 226.146 178.744 226.599C178.843 226.675 178.948 226.734 179.057 226.776C177.704 227.391 176.416 228.129 175.272 228.89C174.225 229.585 173.15 230.656 172.667 231.865C172.627 231.727 172.586 231.599 172.546 231.478C171.723 229.029 170.456 227.024 168.459 225.676C168.812 225.516 169.056 225.138 168.942 224.616C168.468 222.435 166.466 220.54 164.206 220.675C161.731 220.822 159.073 221.729 156.834 222.874C156.018 222.856 155.204 222.867 154.399 222.903C154.261 222.908 154.268 223.097 154.399 223.113C155.052 223.196 155.705 223.288 156.358 223.396C157.91 223.646 159.457 223.963 160.971 224.357C162.786 224.83 164.665 225.305 166.362 226.131C169.653 227.735 171.69 231.93 171.272 235.58C171.202 236.179 170.972 237.988 170.147 237.802C169.449 237.644 169.172 236.179 168.928 235.637C168.276 234.196 167.099 233.256 165.689 232.619C164.032 231.869 162.259 231.363 160.541 230.773C159.569 230.438 158.596 230.103 157.621 229.77C156.624 229.425 155.676 228.95 154.614 229.191C153.972 229.337 153.899 230.107 154.259 230.548C154.806 231.221 155.62 231.419 156.41 231.696C157.452 232.061 158.491 232.425 159.531 232.79C161.138 233.352 162.822 233.827 164.389 234.516L164.34 234.628C164.213 234.592 164.063 234.721 164.088 234.878C164.322 236.334 164.649 238.018 164.286 239.476C164.001 240.633 162.992 241.913 161.682 241.573C161.888 241.384 161.964 241.058 161.825 240.756C161.306 239.64 154.509 235.234 153.903 236.87C153.883 236.928 153.945 236.971 153.995 236.962C154.511 236.854 155.377 237.741 155.79 238.022C156.387 238.427 156.993 238.823 157.583 239.24C158.23 239.694 158.86 240.172 159.475 240.664C159.958 241.051 160.322 241.454 160.877 241.65C160.586 241.789 160.356 242.048 160.258 242.379C160.007 243.241 159.524 243.972 158.686 244.353C157.807 244.749 156.817 244.499 155.891 244.596C154.63 244.724 153.53 245.327 152.611 246.189C150.681 248.003 149.713 251.199 147.014 252.056C145.402 252.567 143.613 252.245 141.981 252.013C140.159 251.755 138.384 251.55 136.548 251.82C134.791 252.079 133.129 252.691 131.524 253.438C130.019 254.138 128.356 254.93 127.021 255.974C126.746 255.121 126.468 254.277 126.258 253.406C125.762 251.347 125.494 249.25 125.428 247.134C125.368 245.12 125.48 243.097 125.652 241.092C125.737 240.09 125.871 239.093 125.956 238.092C125.979 237.84 126.023 237.57 126.057 237.3C128.44 235.884 130.945 234.8 133.469 233.683C133.476 233.681 133.482 233.676 133.489 233.674C133.567 233.638 133.643 233.605 133.722 233.571C133.719 233.566 133.717 233.562 133.713 233.557C134.001 233.38 134.202 233.143 134.323 232.877C137.961 230.449 141.002 227.134 143.269 223.268C144.219 221.648 145.134 219.966 146.377 218.547C147.701 217.032 149.273 216.132 151.218 215.663C153.492 215.115 155.835 214.786 158.165 214.599C159.437 214.498 160.859 214.34 162.245 214.347C163.211 214.354 164.157 214.437 165.025 214.678C166.31 215.033 167.061 216.017 167.869 217.012C168.64 217.966 169.407 218.922 170.127 219.917C170.809 220.86 171.453 221.834 172.012 222.856C172.347 223.468 172.658 224.099 172.92 224.749C173.011 224.978 173.132 225.239 173.188 225.478C173.244 225.719 173.141 225.973 173.409 225.973C172.302 225.989 172.314 227.769 173.414 227.704C177.72 227.452 171.551 218.99 170.65 217.81C169.373 216.141 168.056 213.962 166.013 213.186C165.984 213.174 165.952 213.163 165.923 213.154C166.518 212.587 166.988 211.908 167.437 211.217C167.9 210.505 168.452 209.691 168.604 208.847C168.7 208.309 168.036 208.003 167.721 208.473C167.263 209.16 167.041 210.028 166.699 210.782C166.35 211.547 165.926 212.27 165.59 213.042C164.783 212.792 163.911 212.677 163.023 212.639C164.144 211.113 166.057 208.169 166.288 207.791C167.348 206.04 168.356 204.236 169.32 202.428C170.361 200.47 171.254 198.431 172.251 196.451C172.817 195.328 173.387 194.196 174.015 193.107C174.232 192.733 174.465 192.36 174.728 192.02C174.78 191.953 174.845 191.896 174.905 191.833C174.974 191.795 175.046 191.752 175.086 191.73C175.448 191.52 175.576 191.034 175.831 190.726C176.238 190.229 176.716 190.17 177.329 190.163C178.634 190.15 179.945 190.201 181.248 190.237C183.165 190.291 185.078 190.368 186.992 190.469C187.572 190.501 188.148 190.532 188.727 190.568C191.511 190.735 194.293 190.953 197.067 191.221C199.522 191.457 201.978 191.842 204.435 192.027C201.108 199.982 197.419 207.794 193.242 215.333C193.199 215.409 193.168 215.486 193.148 215.562ZM174.688 236.057C174.152 236.305 173.631 236.613 173.146 236.965C173.226 236.418 173.246 235.841 173.224 235.263C173.624 235.695 174.136 235.943 174.688 236.057ZM197.595 222.372C197.557 222.377 197.521 222.397 197.504 222.435C196.761 223.977 197.072 225.698 198.284 226.907C198.919 227.537 200.303 228.248 200.258 229.283C200.22 230.121 199.315 230.823 198.928 231.514C198.568 232.157 198.434 232.864 198.722 233.562C199.091 234.455 200.122 234.811 200.475 235.689C200.922 236.802 200.196 238.146 199.686 239.116C199.212 240.014 198.599 240.912 198.192 241.861C195.467 243.282 193.027 245.46 190.93 247.672C188.634 250.092 186.664 252.938 183.017 252.867C182.653 252.86 182.375 253.053 182.21 253.321C181.195 253.368 180.177 253.388 179.162 253.393C177.378 253.402 175.594 253.384 173.812 253.328C173.687 252.893 173.778 252.304 173.771 251.937C173.749 250.755 173.738 249.576 173.689 248.395C173.675 248.066 173.662 247.735 173.649 247.407C174.29 248.575 175.542 249.106 176.969 249.025C179.263 248.89 181.57 248.512 183.842 248.172C185.038 247.994 186.232 247.791 187.424 247.575C188.403 247.4 189.785 247.445 190.469 246.655C190.63 246.471 190.639 246.133 190.387 246.009C189.709 245.674 189.282 245.861 188.537 246.005C187.63 246.182 186.72 246.351 185.807 246.509C184.057 246.815 182.302 247.098 180.542 247.348C179.54 247.49 178.536 247.629 177.532 247.74C176.656 247.834 175.668 247.963 174.961 247.299C173.537 245.957 174.335 243.709 175.236 242.354C175.254 242.328 175.254 242.303 175.247 242.28C176.097 242.08 176.944 241.846 177.789 241.681C179.415 241.366 181.052 241.101 182.691 240.865C186.058 240.381 189.448 240.061 192.833 239.739C193.671 239.658 193.68 238.331 192.833 238.409C187.969 238.857 183.082 239.282 178.284 240.226C177.081 240.459 175.887 240.725 174.699 241.024C174.138 241.164 173.537 241.382 172.949 241.389C172.913 241.389 172.877 241.389 172.841 241.387C171.69 241.351 171.522 240.358 172.155 239.532C172.233 239.431 172.314 239.33 172.396 239.233C173.514 237.892 174.907 236.996 176.343 236.069C177.95 235.848 179.554 235.358 181.128 234.997C185.014 234.106 188.9 233.215 192.788 232.326C193.55 232.151 193.226 230.971 192.464 231.145C189.512 231.818 186.561 232.49 183.609 233.163L179.29 234.149C178.427 234.345 177.349 234.739 176.334 234.881C175.833 234.95 175.348 234.959 174.91 234.856C173.494 234.518 173.423 232.738 174.033 231.68C174.717 230.492 176.01 229.749 177.157 229.076C179.144 227.908 181.26 227.069 183.326 226.101C183.692 226.02 184.059 225.939 184.426 225.858C186.559 225.386 188.996 225.154 191.004 224.288C191.605 224.031 191.276 223.077 190.682 223.09C189.123 223.124 187.493 223.682 185.971 224.013C184.323 224.373 182.673 224.731 181.025 225.089C180.859 225.125 179.88 225.44 179.733 225.37C179.639 225.325 179.605 224.997 179.574 224.78C179.473 224.069 179.399 223.322 179.509 222.609C179.75 221.008 181.076 220.257 182.418 219.642C185.405 218.276 188.681 217.421 191.941 217.079C192.692 217 193.443 216.951 194.199 216.926C195.086 216.899 195.818 216.742 196.267 217.621C196.974 219.008 197.363 220.79 197.595 222.372ZM193.447 272.636C192.796 270.37 192.973 267.951 192.527 265.64C192.297 264.447 191.983 263.264 191.64 262.1C191.363 261.16 190.901 260.16 190.849 259.179C190.846 259.113 190.923 259.076 190.975 259.106C191.894 259.635 192.599 260.779 193.122 261.677C193.749 262.752 194.228 263.877 194.614 265.06C195.384 267.417 196.016 270.26 195.023 272.636C194.728 273.343 193.69 273.484 193.447 272.636ZM173.331 242.624C173.881 242.571 174.431 242.465 174.981 242.341C174.366 242.944 173.798 243.671 173.483 244.477C173.434 243.858 173.371 243.241 173.289 242.627C173.302 242.627 173.318 242.627 173.331 242.624ZM168.045 289.788C167.075 289.107 166.368 288.154 165.546 287.314C164.737 286.487 166.001 285.214 166.81 286.041C167.512 286.758 168.122 287.653 168.948 288.233C169.345 288.512 169.529 289.017 169.269 289.465C169.038 289.861 168.441 290.066 168.045 289.788ZM162.636 263.604C164.406 262.834 166.148 261.994 168.001 261.439C169.108 261.108 169.577 262.846 168.476 263.175C166.77 263.687 165.169 264.449 163.539 265.159C162.492 265.614 161.582 264.063 162.636 263.604ZM143.937 263.065C143.504 261.99 145.235 261.526 145.662 262.587C146.153 263.807 146.716 264.996 147.207 266.216C147.64 267.291 145.909 267.755 145.482 266.695C144.991 265.474 144.428 264.285 143.937 263.065ZM125.48 284.539C125.192 284.926 124.711 285.136 124.257 284.862C123.876 284.633 123.644 284.022 123.936 283.63C124.788 282.487 125.652 281.357 126.651 280.337C127.461 279.51 128.726 280.784 127.916 281.61C127.024 282.521 126.242 283.517 125.48 284.539ZM122.841 164.05C123.662 164.614 124.382 165.3 125.083 166.006C125.899 166.826 124.634 168.099 123.818 167.278C123.227 166.684 122.631 166.08 121.939 165.604C121.539 165.329 121.359 164.818 121.618 164.373C121.85 163.974 122.442 163.776 122.841 164.05ZM149.693 193.022C149.229 193.958 148.811 194.875 148.784 195.938C148.756 197.096 146.967 197.097 146.996 195.938C147.03 194.546 147.54 193.34 148.148 192.113C148.663 191.075 150.205 191.988 149.693 193.022ZM159.545 169.753C160.506 169.108 161.401 170.669 160.448 171.308C159.675 171.826 158.902 172.345 158.129 172.864C157.168 173.509 156.273 171.949 157.226 171.309C157.999 170.791 158.772 170.272 159.545 169.753ZM116.813 210.436C116.649 211.58 114.925 211.091 115.088 209.958C115.34 208.207 115.647 206.478 116.119 204.772C116.428 203.656 118.153 204.133 117.843 205.251C117.371 206.957 117.064 208.685 116.813 210.436ZM110.541 231.06C109.39 231.035 109.39 229.235 110.541 229.259C111.583 229.282 112.608 229.558 113.613 229.81C114.731 230.091 114.254 231.827 113.137 231.546C112.287 231.332 111.422 231.079 110.541 231.06ZM108.226 272.604C107.831 272.798 107.425 272.972 107.025 273.156C106.224 273.524 105.424 273.893 104.624 274.263C102.958 275.033 101.292 275.806 99.6276 276.581C96.2961 278.133 92.9389 279.631 89.5993 281.166C86.1938 282.732 82.7972 284.318 79.4049 285.913C77.8066 286.664 76.1963 287.388 74.5892 288.119C73.215 288.745 71.5163 289.837 70.0078 289.94C69.9302 289.946 69.9042 289.847 69.9485 289.796C70.5184 289.144 71.4276 288.764 72.1766 288.34C72.9417 287.907 73.7212 287.499 74.497 287.086C76.1145 286.223 77.734 285.368 79.3671 284.535C82.6338 282.872 85.9067 281.22 89.1803 279.57C92.519 277.887 95.8534 276.193 99.2213 274.57C100.807 273.806 102.394 273.044 103.982 272.285C104.843 271.874 105.704 271.463 106.565 271.053C106.936 270.876 107.304 270.685 107.685 270.526C108.19 270.316 108.574 270.359 109.094 270.229C109.944 270.018 110.312 271.105 109.66 271.579C109.123 271.969 108.84 272.302 108.226 272.604ZM96.285 291.065C96.1015 290.616 96.4858 290.07 96.9098 289.957C97.4175 289.823 97.8247 290.133 98.01 290.586C98.5004 291.787 99.1989 292.888 100.098 293.819C100.902 294.65 99.6373 295.924 98.8331 295.092C97.7064 293.926 96.897 292.563 96.285 291.065ZM87.4999 262.166C86.6845 261.345 87.9496 260.073 88.7648 260.893L91.083 263.226C91.8984 264.047 90.6331 265.32 89.8181 264.499L87.4999 262.166ZM63.7164 258.362C62.0497 258.854 60.1058 259.306 58.9695 260.737C58.9141 260.807 58.8208 260.718 58.8542 260.648C60.3088 257.612 64.4806 256.548 67.369 255.484C69.4119 254.732 71.5081 254.108 73.6219 253.551C73.4106 251.124 73.9933 248.522 74.1959 246.107C74.4121 243.529 74.5881 240.943 74.6784 238.356C74.7707 235.718 74.7931 233.061 74.7068 230.422C74.6209 227.792 74.2817 225.195 74.1333 222.574C74.119 222.32 74.4696 222.308 74.5451 222.518C75.423 224.95 75.7979 227.644 76.0837 230.208C76.3779 232.85 76.4756 235.484 76.4381 238.142C76.3992 240.874 76.2413 243.599 76.0246 246.323C75.922 247.613 75.8028 248.902 75.6904 250.192C75.6045 251.177 75.5647 252.153 75.3653 253.106C76.6402 252.792 77.918 252.494 79.1918 252.204C83.2536 251.281 87.3323 250.425 91.3771 249.428C93.3626 248.938 95.3197 248.352 97.2962 247.831C99.1574 247.341 101.122 246.746 103.033 246.527C103.715 246.449 103.801 247.388 103.35 247.707C101.797 248.804 99.7343 249.568 97.9404 250.183C96.1401 250.799 94.2686 251.243 92.4233 251.699C88.5751 252.652 84.6904 253.431 80.8115 254.242C76.938 255.053 73.0571 255.857 69.2272 256.857C67.3828 257.338 65.5447 257.822 63.7164 258.362ZM54.5835 210.196C53.5876 210.785 52.6885 209.228 53.6808 208.642C54.9792 207.875 56.363 207.298 57.758 206.736C58.8286 206.305 59.2892 208.047 58.2336 208.472C56.9799 208.977 55.7502 209.507 54.5835 210.196ZM50.9774 277.084C49.9788 277.667 49.0791 276.111 50.0747 275.53C51.4731 274.714 53.0044 274.17 54.4535 273.456C55.4845 272.948 56.3901 274.501 55.3562 275.01C53.9073 275.724 52.3757 276.268 50.9774 277.084ZM49.3554 239.116C50.3209 240.039 51.6094 240.473 52.8244 240.958C53.8838 241.381 53.4192 243.121 52.3488 242.694C50.8351 242.09 49.2932 241.538 48.0905 240.388C47.2539 239.589 48.521 238.318 49.3554 239.116ZM60.0365 187.551C61.0979 187.97 60.633 189.711 59.5609 189.287C58.3719 188.818 57.1439 188.461 55.9548 187.991C54.8937 187.572 55.3583 185.832 56.4304 186.255C57.6195 186.724 58.8474 187.082 60.0365 187.551ZM78.8793 167.07C80.0071 166.879 80.4874 168.614 79.3549 168.806C77.9498 169.045 76.5663 169.324 75.2337 169.843C74.1575 170.262 73.6958 168.521 74.7581 168.107C76.0909 167.588 77.4745 167.309 78.8793 167.07ZM85.1052 216.937C84.0711 216.425 84.9784 214.873 86.0078 215.383C87.0927 215.919 88.2167 216.334 89.4004 216.588C90.5275 216.83 90.0474 218.565 88.9248 218.324C87.5926 218.038 86.3251 217.541 85.1052 216.937ZM90.9854 188.848C92.0989 188.541 92.5698 190.278 91.461 190.584C89.5102 191.122 87.5017 191.401 85.5365 191.88C84.4165 192.153 83.9427 190.416 85.0609 190.144C87.0261 189.665 89.0348 189.386 90.9854 188.848ZM115.931 180.033C117.063 180.244 116.58 181.979 115.455 181.769C114.257 181.546 113.044 181.542 111.829 181.542C110.676 181.541 110.678 179.741 111.829 179.741C113.209 179.742 114.571 179.78 115.931 180.033ZM197.287 189.439C194.364 189.158 191.438 188.932 188.506 188.764C188.37 188.757 188.236 188.748 188.099 188.741C188.084 188.71 188.064 188.68 188.043 188.649C187.086 187.235 186.382 185.822 185.772 184.224C185.188 182.703 184.622 181.135 183.724 179.762C182.698 178.198 181.314 176.974 179.798 175.913C178.878 176.536 178.024 177.265 177.242 178.038C176.42 178.851 175.155 177.578 175.978 176.765C176.672 176.078 177.413 175.443 178.196 174.87C177.292 174.317 176.369 173.797 175.469 173.28C172.094 171.343 168.64 169.551 165.114 167.913C163.475 167.15 161.816 166.472 160.146 165.786C159.247 165.417 158.359 164.942 157.461 164.515C157.525 163.875 157.335 163.16 156.848 162.739C156.488 162.43 156.208 162.316 155.779 162.098C155.683 162.064 155.625 162.043 155.598 162.032C155.618 162.037 155.676 162.055 155.772 162.086C156.001 162.192 156.018 162.16 155.826 161.994C155.815 161.63 155.101 160.86 154.938 160.484C154.371 159.194 154.194 157.83 153.355 156.656C152.199 155.038 150.259 154.426 148.45 154.975C148.262 153.028 148.213 150.996 147.484 149.258C147.464 149.211 147.399 149.191 147.37 149.243C146.61 150.546 146.545 151.997 146.487 153.501C146.431 154.912 146.484 156.354 146.668 157.756C146.552 157.846 146.433 157.932 146.31 158.015C145.733 158.398 145.112 158.692 144.459 158.911C143.216 159.325 141.912 159.505 140.608 159.568C137.243 159.73 133.776 159.388 130.466 158.807C127.119 158.22 121.988 157.338 119.01 155.652C117.044 154.541 115.231 153.183 113.393 151.869C114.059 149.708 114.229 147.386 113.558 145.561C113.478 145.343 113.138 145.302 113.073 145.561C112.653 147.303 112.53 149.054 111.971 150.775C111.962 150.8 111.953 150.827 111.944 150.852C111.77 150.733 111.595 150.615 111.421 150.498C111.018 150.231 110.471 150.431 110.229 150.813C106.367 156.937 100.252 157.288 93.8309 158.382C86.8032 159.579 79.7402 160.871 72.9832 163.214C66.5214 165.455 60.3458 168.719 55.4536 173.593C54.3462 174.697 53.3105 175.873 52.333 177.1C53.2788 177.22 54.2167 177.407 55.1426 177.7C56.2389 178.046 55.7678 179.784 54.667 179.436C53.4771 179.06 52.2739 178.873 51.0585 178.781C47.7344 183.358 45.1425 188.548 42.9012 193.656C38.6022 203.45 35.804 213.881 34.5163 224.5C35.2233 224.074 35.943 223.668 36.6807 223.29C37.7056 222.765 38.6096 224.319 37.5835 224.844C36.4441 225.428 35.3373 226.071 34.265 226.768C33.7966 231.416 33.615 236.095 33.725 240.766C33.9866 251.901 35.4802 263.363 38.8587 273.987C40.5155 279.202 42.7112 284.373 45.9823 288.78C47.4625 290.776 49.1439 292.576 51.1249 294.077C52.0841 294.807 53.0992 295.457 54.1702 296.006C55.5498 296.717 57.3475 296.951 58.537 297.957C58.9283 298.288 59.2301 298.725 59.4582 299.217C59.3262 300.154 59.3106 301.092 59.5655 302.028C59.646 302.321 59.8651 302.559 60.1356 302.674C60.1401 302.755 60.1401 302.834 60.1401 302.911C60.1401 302.947 60.1938 302.956 60.2005 302.92C60.2117 302.85 60.2228 302.78 60.234 302.708C60.3212 302.737 60.4129 302.751 60.5068 302.751C63.9032 302.764 67.3038 302.681 70.7046 302.564C70.4417 301.754 70.1568 300.95 69.8833 300.139C69.512 299.037 71.2401 298.569 71.6081 299.66C71.9281 300.608 72.2626 301.548 72.5602 302.499C76.2041 302.363 79.8468 302.199 83.4831 302.078C91.2171 301.819 98.9489 301.734 106.685 301.569C118.699 301.313 130.8 300.788 142.832 301.302C143.248 300.413 143.714 299.544 144.156 298.667C144.677 297.633 146.22 298.545 145.7 299.576C145.393 300.185 145.075 300.787 144.773 301.395C147.21 301.522 149.645 301.691 152.074 301.921C156.219 302.312 160.325 303.007 164.466 303.44C168.676 303.88 172.794 303.802 176.971 303.102C177.722 302.976 178.165 302.519 178.348 301.952C178.355 301.95 178.36 301.945 178.364 301.938C178.579 301.686 178.78 301.477 178.988 301.295C179.236 301.133 179.504 300.995 179.82 300.874C180.408 300.649 181.02 300.512 181.642 300.419C182.326 300.316 183.019 300.307 183.704 300.221C184.28 300.147 184.844 300.037 185.407 299.902C186.42 299.659 187.382 299.341 188.339 298.92C189.173 298.554 189.926 298.027 190.637 297.453C192.108 296.371 193.383 294.989 194.496 293.553C195.145 292.714 195.755 291.843 196.31 290.936C197.276 289.365 198.098 287.733 198.93 286.088C199.232 285.601 199.507 285.102 199.759 284.592C198.134 284.11 196.493 283.717 194.769 283.689C193.617 283.67 193.618 281.87 194.769 281.888C196.746 281.92 198.615 282.385 200.472 282.939C200.563 282.697 200.65 282.453 200.73 282.206C200.951 281.691 201.135 281.162 201.287 280.626C201.376 280.383 201.466 280.14 201.555 279.897C201.756 279.055 201.958 278.211 202.161 277.367C202.566 276.017 202.885 274.647 203.12 273.258C203.317 272.344 203.469 271.424 203.572 270.492C203.885 268.235 204.14 265.982 204.158 263.7C204.131 262.294 204.041 260.889 203.889 259.492C203.825 258.542 203.715 257.597 203.567 256.658C203.375 255.263 203.185 253.882 202.865 252.504C202.626 251.573 202.387 250.641 202.148 249.709C201.551 247.767 200.846 245.863 200.034 244.002C199.99 243.885 199.764 243.628 199.628 243.626C199.525 243.624 199.382 243.718 199.428 243.844C199.433 243.855 199.437 243.869 199.442 243.88C199.395 243.774 199.35 243.666 199.304 243.561C199.263 243.462 199.107 243.264 198.986 243.266C198.979 243.266 198.972 243.266 198.964 243.268C198.995 243.246 199.024 243.216 199.053 243.183C199.856 242.226 200.377 240.968 200.951 239.861C201.428 238.947 201.877 237.984 202.007 236.951C202.121 236.044 201.966 235.151 201.401 234.417C200.757 233.582 199.545 233.19 200.218 231.984C200.983 230.611 202.107 229.421 200.987 227.861C200.417 227.067 199.514 226.63 198.843 225.939C198.072 225.14 197.705 224.071 197.725 222.98C197.772 223.007 197.835 222.994 197.857 222.926C198.505 220.954 198.036 218.79 197.372 216.87C197.009 215.828 196.242 215.542 195.35 215.491C199.214 207.895 202.829 200.178 206.051 192.283C206.159 192.024 206.264 191.766 206.369 191.507C206.526 191.12 206.195 190.605 205.812 190.519C203.026 189.904 200.124 189.709 197.287 189.439Z" fill="#1C1B1B">
	</path>
	<path fill-rule="evenodd" clip-rule="evenodd" d="M165.054 95.3659C164.523 88.447 165.346 81.195 162.695 74.6186C158.074 63.7071 145.116 60.069 135.07 55.9148C131.045 54.7179 117.502 54.5506 112.79 52.9664C102.124 49.3809 99.5762 45.1089 91.1016 51.9357C89.6711 53.1019 88.7761 54.3694 88.1232 56.1011L88.15 56.1086C87.9635 56.8305 88.1634 57.5509 88.5836 58.1012C84.909 61.8815 83.3714 67.5492 85.2567 72.5815C91.4093 85.6769 91.12 92.7576 89.1376 106.836C86.5489 119.979 92.4644 124.78 102.261 131.931C101.862 132.709 101.78 133.744 102.3 134.431C113.628 150.454 134.989 158.104 153.29 149.971C160.719 146.643 164.036 138.68 165.929 131.495C168.133 123.45 168.811 114.972 167.016 106.777C166.292 102.987 165.349 99.2239 165.054 95.3659Z" fill="white">
	</path>
	<path fill-rule="evenodd" clip-rule="evenodd" d="M99.7077 18.71C101.083 18.5022 102.121 19.3609 102.615 20.5713L102.641 20.6364C102.8 21.0483 102.977 21.4489 103.167 21.8427C106.608 20.1436 111.518 20.5802 113.696 24.0212C115.25 26.4787 114.302 29.3953 113.716 32.0014L113.331 33.7185C114.075 34.1947 114.635 35.0474 114.609 35.9303L114.606 35.9983L114.449 38.3928C114.946 37.8864 115.399 37.3351 115.804 36.7477C116.084 36.2323 116.385 35.726 116.71 35.2354C118.617 32.348 122.899 34.8573 121.325 37.9495C121.023 38.5458 120.683 39.1107 120.318 39.6553C119.907 40.4588 119.569 41.2847 119.31 42.1331C120.055 42.4594 120.627 43.1841 120.687 44.2778C120.828 46.8321 119.496 48.9634 117.376 50.3024C116.752 50.6962 116.108 50.7727 115.525 50.6265C115.422 50.766 115.319 50.9055 115.221 51.0473C116.066 51.7382 116.828 52.5259 117.483 53.3991C119.455 53.102 121.439 52.9625 123.422 52.958C125.846 51.763 128.748 51.7877 131.353 52.2356C133.03 52.5236 134.639 53.084 136.29 53.4868C138.029 53.9099 139.795 53.9257 141.555 54.2137C143.773 54.5761 145.718 55.6068 146.941 57.2519C148.285 57.2924 149.698 57.846 150.87 58.5977C153.598 60.3486 156.31 62.1242 159.031 63.8863C160.075 64.5629 160.466 65.6428 160.274 66.8475L160.261 66.9245L160.169 67.4241L160.384 67.7316C161.217 68.9153 162.123 70.155 162.662 71.4615C163.659 72.9086 164.56 74.4254 165.359 75.9895C166.434 78.0914 167.322 80.3194 167.923 82.6059C168.073 83.1843 168.223 83.7672 168.321 84.3568C168.462 85.1895 168.245 85.8354 168.127 86.6343C167.979 87.647 167.926 88.6732 167.769 89.6882C167.664 90.3611 167.096 90.6919 166.501 90.7099C166.725 92.4226 166.886 94.1464 167.04 95.8568C167.257 98.3008 167.405 100.752 167.532 103.202C168.189 104.163 169.533 104.924 170.504 105.187C171.847 105.55 173.256 105.156 174.526 104.694C175.324 104.404 175.979 105.415 175.59 106.09C174.367 108.21 171.751 108.201 169.77 107.262C168.932 106.866 168.196 106.292 167.651 105.545C167.684 106.256 167.72 106.967 167.756 107.681L167.789 108.327C168.192 115.873 169.061 123.679 167.653 131.151C165.213 144.094 154.572 153.949 141.573 154.714C134.752 155.115 129.071 153.088 126.247 151.956C123.422 150.825 124.52 148.518 126.481 149.178C129.859 150.314 136.064 152.006 141.618 151.275C154.707 149.553 165.806 142.968 164.666 114.608C164.504 110.586 164.006 106.562 163.899 102.541C163.796 98.6091 163.834 94.6753 163.662 90.7459L163.604 89.4053C163.537 87.8388 163.465 86.265 163.349 84.6966C163.208 84.089 163.091 83.4724 162.919 82.876C162.452 81.2534 161.842 79.6758 161.084 78.1702C160.916 78.2985 160.728 78.3908 160.525 78.4268C158.98 78.7058 157.531 78.627 156.084 77.9789C155.409 77.6796 154.814 77.2813 154.26 76.7884C153.996 76.5566 153.819 76.3316 153.681 76.0975C152.981 76.1088 152.281 75.8972 151.843 75.3909C151.343 74.8137 151.26 74.2176 151.455 73.6657L151.476 73.6107L151.427 73.5927C150.836 75.1298 149.66 76.4823 148.37 77.396C146.331 78.8453 143.78 79.2639 141.334 79.3022C138.633 79.3427 135.784 78.9241 133.119 78.4965C132.415 78.384 131.715 78.2557 131.028 78.0824C131.002 78.1094 130.975 78.1409 130.946 78.168C128.658 80.3712 125.441 80.9383 122.539 79.6803C120.862 78.9534 119.455 77.7831 118.212 76.4418C118.194 77.144 118.159 77.8461 118.098 78.5415L118.073 78.8177C117.949 80.1128 117.711 81.4867 116.739 82.4214C115.167 83.936 112.886 83.3283 111.073 82.3426C111.075 82.3899 111.075 82.4394 111.075 82.4889C111.565 84.1633 112.057 85.8399 112.549 87.5165L112.655 87.8736C113.012 89.0641 113.405 90.2561 113.512 91.5021C113.718 93.8831 112.144 96.2349 109.514 95.436C108.135 95.0184 107.03 93.8512 105.97 92.9163L105.302 92.3348C107.03 98.0218 108.229 103.911 108.341 109.846C108.347 110.168 108.072 110.411 107.768 110.422C107.057 110.451 106.293 110.309 105.577 110.024C105.537 110.021 105.497 110.019 105.454 110.012C104.233 109.835 103.1 109.391 102.1 108.736C102.33 109.472 102.433 110.262 102.373 111.088C102.357 111.288 102.047 111.358 102.002 111.138C101.425 108.282 98.1046 106.124 95.2426 106.67C92.1705 107.258 89.9077 109.918 89.3532 112.945C88.7585 116.197 89.8966 119.957 92.005 122.467C92.9754 123.623 94.2521 124.589 95.7681 124.832C96.4612 124.942 97.1812 124.904 97.8542 124.706C98.1404 124.62 98.4087 124.501 98.6815 124.388C99.0795 124.226 99.5445 124.202 99.9202 124.031C100.772 123.646 101.628 124.436 101.197 125.316C100.821 126.083 100.484 126.601 99.8598 126.997C100.365 127.618 100.823 128.482 100.993 128.714C101.861 129.893 102.742 131.007 103.73 132.085C104.736 133.179 105.834 134.178 106.995 135.103L107.482 135.491C108.6 136.383 109.573 137.21 110.362 138.49C110.983 139.501 110.179 140.871 109.014 140.855C105.369 140.804 102.72 137.581 100.832 134.766C100.564 134.363 100.311 133.937 100.077 133.501C99.9917 133.638 99.8978 133.766 99.7927 133.883L100.001 134.446C100.618 136.102 97.9593 137.185 97.1879 135.639C96.6267 134.518 95.976 133.451 95.2516 132.443C94.8245 132.382 94.4064 132.121 94.1739 131.784C93.5858 130.926 92.9262 130.06 92.3695 129.146C92.0609 128.851 91.7434 128.568 91.4192 128.291C91.3253 128.374 91.2292 128.457 91.1375 128.545C90.7306 129.479 90.2275 130.332 89.6036 131.135L89.4699 131.307C88.2748 132.823 86.7182 134.374 84.792 134.745C84.2039 134.858 83.6382 134.122 84.1592 133.652C85.5075 132.432 87.1017 131.601 88.3448 130.24C88.9573 129.569 89.5197 128.83 90.0033 128.056L90.1134 127.877C90.1939 127.744 90.2767 127.611 90.3616 127.476C89.8004 127.091 89.2392 126.704 88.678 126.317C87.133 127.646 85.1211 128.253 83.4123 129.354L83.2425 129.466C81.6975 130.505 80.0697 128.205 81.3084 126.943C82.6739 125.556 83.8137 123.903 85.0234 122.362C84.4546 121.307 84.1854 120.06 84.0845 118.8C84.0447 118.443 84.0136 118.086 83.9826 117.729C83.115 117.743 82.243 117.443 81.5052 116.928L81.2257 116.728C80.3291 117.016 79.3878 117.155 78.4867 117.131C76.367 117.068 75.4995 114.63 76.8254 113.089C78.1781 111.513 80.546 111.169 82.4219 111.934C82.4823 111.903 82.5449 111.869 82.6052 111.835C82.5158 111.421 82.5357 111.046 82.6374 110.716L82.6079 110.514C82.1954 109.877 81.9242 109.15 81.8213 108.381C81.7399 107.773 81.7565 107.169 81.8964 106.568C81.943 106.368 82.0398 106.161 82.1138 105.952C81.9613 105.565 81.8716 105.164 81.8439 104.761C81.8012 104.71 81.7587 104.658 81.7185 104.601C80.7877 103.286 80.9757 101.701 81.8616 100.636C81.8656 100.568 81.8719 100.501 81.881 100.433C81.8291 100.316 81.7815 100.197 81.7381 100.077C80.8726 99.1985 80.2372 98.1411 80.3557 96.8306C80.4252 96.0596 80.74 95.3655 81.2165 94.8468C81.132 94.5952 81.1239 94.3037 81.2263 94.0605C80.4659 92.0247 80.5621 89.5728 81.1094 87.2959C80.9887 86.9494 80.9261 86.5735 80.9395 86.1752C81.0021 84.4851 82.4554 82.9322 84.1771 82.9525C84.3844 82.9543 84.5784 82.9815 84.7649 83.0214L84.7674 82.9811C84.8333 82.4738 84.9719 82.005 85.1743 81.5844C85.0748 81.5482 84.9827 81.4962 84.902 81.4271C83.7988 82.0194 82.6314 82.4722 81.4075 82.7808C80.5075 83.0076 79.5856 81.978 80.1451 81.1278C80.4046 80.7333 80.6911 80.3791 80.9996 80.0554C80.5609 80.0579 80.1155 80.0878 79.665 80.1461C78.8556 80.2519 77.9523 79.696 77.4269 78.9444C76.774 79.5835 76.1188 80.2204 75.4637 80.8573C73.8047 82.4754 71.2982 81.2849 71.0366 79.1514C70.5425 79.0186 70.0819 78.7936 69.6772 78.4718C67.0612 79.615 64.2461 80.2429 61.3685 80.3622C59.3025 80.4477 58.0951 78.0262 59.061 76.3158C59.7095 75.1681 60.5144 74.1373 61.4423 73.2416C60.0024 73.685 58.5155 74.0045 56.9973 74.2093C56.1767 74.3196 55.0163 73.6355 54.6876 72.8771C53.431 69.9604 53.5383 66.92 54.985 64.0821C55.0409 63.9696 55.1035 63.8616 55.1638 63.7536C55.3136 63.3777 55.4769 63.0064 55.6535 62.6418C53.8737 60.7739 53.7194 57.9968 54.6786 55.6721C54.2941 55.0442 54.1465 54.288 54.4081 53.6039C55.1527 51.6347 56.2259 49.8163 57.5809 48.2544C57.4512 48.0024 57.3372 47.7346 57.241 47.4465C56.4786 45.1173 57.3617 42.3064 59.1438 40.6838C60.264 39.6621 61.5519 39.0499 62.9269 38.6584C63.506 37.6276 64.2506 36.6982 65.1181 35.915C65.1517 35.8407 65.1852 35.7665 65.2232 35.6922C66.5737 33.1312 69.0332 31.7584 71.6694 31.441C71.7722 30.4396 72.443 29.4831 73.4179 29.1726C73.6862 28.3061 74.0864 27.4779 74.6364 26.7263C75.5017 25.5425 76.9394 24.9844 78.2944 25.7608C79.0367 26.1862 79.7477 26.6745 80.414 27.2146C80.7133 27.0734 81.0526 26.982 81.4354 26.9528L81.532 26.9468L83.7366 26.8343C84.66 26.4225 85.5812 25.9904 86.5047 25.5695C87.0592 25.1082 87.6785 24.7233 88.3538 24.4375C89.1185 24.1157 89.901 23.9334 90.6858 23.8726C91.3231 23.6634 91.9648 23.4788 92.6177 23.3348C94.1515 22.9972 95.7569 22.8082 97.3489 22.8239C97.3814 22.4092 97.3976 21.9895 97.3945 21.5648L97.3913 21.3521C97.3556 19.9906 98.4355 18.9036 99.7077 18.71ZM98.1627 127.645C97.9436 127.692 97.7222 127.73 97.5008 127.757C97.5679 127.924 97.635 128.09 97.6998 128.257C97.8787 128.358 98.0598 128.455 98.2409 128.545C98.1873 128.239 98.156 127.931 98.1627 127.645ZM86.6751 124.209L86.5265 124.485C86.5024 124.53 86.4786 124.574 86.4553 124.618C86.7706 124.593 87.0881 124.6 87.4011 124.636L87.4002 124.602C87.36 124.589 87.3197 124.576 87.2813 124.557C87.0653 124.453 86.8645 124.336 86.6751 124.209ZM92.8835 111.639C94.8617 111.755 96.5376 112.061 98.3367 112.932L98.4912 113.008C100.081 113.802 102.71 115.269 102.489 117.374C102.426 117.972 101.995 118.602 101.315 118.555C99.4527 118.427 98.3884 116.537 97.1273 115.357C95.8551 114.169 94.2922 112.947 92.7516 112.13C92.5339 112.015 92.6196 111.651 92.8566 111.639L92.8835 111.639ZM83.913 83.9156C83.439 83.9313 83.5978 84.3949 83.8415 84.0079C83.8616 83.9763 83.8862 83.9448 83.913 83.9156ZM109.5 52.9665C105.011 53.0853 100.493 55.7532 97.1297 58.45C94.204 60.7961 91.6777 63.5867 89.4406 66.5945C88.8651 68.0924 88.371 69.6217 87.9535 71.1621C87.6785 72.1793 87.5063 73.2078 87.276 74.234L87.2045 74.5487C87.0236 74.8889 86.8892 75.2551 86.7913 75.6334C87.1989 76.0448 87.7277 76.3394 88.3099 76.4791C88.4975 76.5241 88.6534 76.6216 88.7766 76.7508C89.2452 75.9635 89.6548 75.1327 89.8932 74.2518L89.9019 74.2111C90.8027 72.726 91.7812 71.287 92.83 69.8973C95.7233 66.0603 98.9095 62.563 102.74 59.6531C105.644 57.4476 108.891 55.7193 112.343 54.5963C111.498 53.9101 110.538 53.3673 109.5 52.9665Z" fill="#1C1B1B">
	</path>
	<path fill-rule="evenodd" clip-rule="evenodd" d="M149.97 136.415C148.323 136.896 146.555 136.939 144.876 136.443C143.354 135.993 141.79 135.003 140.669 133.693C139.674 132.529 139.029 131.115 139.054 129.606C139.057 129.434 139.118 129.29 139.212 129.178C139.314 129.058 139.455 128.975 139.607 128.939C139.763 128.902 139.928 128.916 140.069 128.98C140.196 129.038 140.305 129.137 140.373 129.281C140.545 129.509 140.717 129.733 140.889 129.951C142.274 131.673 143.615 132.959 145.698 133.42C146.828 133.671 147.956 133.56 148.992 133.178C150.1 132.769 151.102 132.05 151.887 131.13C152.242 130.714 152.661 130.544 153.07 130.541C153.534 130.538 153.993 130.755 154.339 131.102C154.679 131.443 154.906 131.907 154.927 132.392C154.945 132.817 154.807 133.262 154.44 133.658C153.232 134.964 151.665 135.921 149.97 136.415ZM149.92 114.858C151.608 115.891 154.181 118.299 152.364 120.86C150.226 123.118 147.148 120.529 145.631 119.358C144.225 118.451 142.644 120.785 143.949 121.844C154.91 130.013 159.359 115.128 150.774 113.643C149.828 113.48 149.477 114.538 149.92 114.858ZM134.125 110.312C133.583 109.963 132.944 109.843 132.237 110.167C131.684 110.42 130.714 111.264 130.039 112.373C129.578 113.131 129.25 114.021 129.319 114.948C129.334 115.164 129.255 115.323 129.131 115.44C129.032 115.533 128.89 115.601 128.723 115.622C128.581 115.64 128.422 115.624 128.293 115.583C128.048 115.506 127.918 115.346 127.869 115.215C127.396 113.952 127.6 112.542 128.129 111.271C128.844 109.555 130.142 108.118 130.992 107.654C132.447 106.861 134.164 106.824 135.621 107.632C136.861 108.32 137.637 109.431 138.408 110.563C138.572 110.803 138.735 111.042 138.903 111.277C139.24 111.747 139.274 112.214 139.143 112.613C138.999 113.057 138.63 113.43 138.169 113.626C137.743 113.807 137.248 113.832 136.81 113.647C136.44 113.49 136.101 113.184 135.886 112.664C135.525 111.79 134.922 110.825 134.125 110.312ZM161.686 112.258C161.315 112.453 161.024 112.511 160.612 112.387C160.384 112.318 160.158 112.186 159.982 112.008C159.807 111.832 159.681 111.614 159.632 111.371C159.511 110.772 159.186 110.211 158.722 109.845C158.325 109.533 157.824 109.367 157.269 109.461C156.669 109.561 156.098 109.948 155.705 110.404C155.574 110.557 155.471 110.73 155.367 110.902C155.173 111.224 154.985 111.524 154.718 111.76C154.616 111.85 154.464 111.912 154.316 111.912C154.256 111.912 154.195 111.903 154.137 111.884C153.54 111.282 153.426 110.825 153.445 110.371C153.465 109.896 153.651 109.414 153.952 108.965C154.658 107.911 155.999 107.047 156.903 106.852C158.142 106.584 159.372 106.905 160.359 107.602C161.374 108.318 162.126 109.431 162.36 110.685C162.417 110.987 162.393 111.313 162.278 111.595C162.167 111.871 161.972 112.108 161.686 112.258ZM136.857 99.0784C136.114 99.8074 135.234 99.9204 134.344 100.021C133.849 100.077 133.454 100.123 133.066 100.211C131.998 100.453 130.942 100.819 129.979 101.345C128.972 101.895 127.875 102.559 127.086 103.409C126.898 103.611 126.721 103.823 126.544 104.036C126.383 104.23 126.227 104.417 126.063 104.597C125.875 104.804 125.696 105.02 125.518 105.237C125.408 105.419 125.386 105.464 125.364 105.511C125.331 105.581 125.292 105.659 125.248 105.744C125.187 105.859 125.116 105.985 125.041 106.1C124.918 106.309 124.851 106.367 124.794 106.393C124.698 106.435 124.608 106.456 124.52 106.445C124.438 106.434 124.361 106.395 124.284 106.33C123.903 106.005 123.79 105.472 123.802 104.907C123.819 104.049 124.134 103.099 124.424 102.515C125.098 101.158 126.032 99.7471 127.156 98.7343C128.439 97.5783 129.842 96.7031 131.453 96.1C132.455 95.7251 133.615 95.381 134.706 95.4244C135.491 95.4557 136.241 95.6907 136.86 96.2775C137.24 96.6378 137.423 97.1502 137.423 97.6622C137.423 98.1844 137.233 98.7098 136.857 99.0784ZM163.198 105.754C163.151 105.832 163.086 105.886 163.013 105.919C162.937 105.952 162.851 105.962 162.77 105.948C162.688 105.934 162.611 105.897 162.549 105.84C162.491 105.786 162.446 105.714 162.426 105.626C161.932 103.444 160.974 101.82 158.928 100.773C157.922 100.258 156.765 99.9311 155.669 99.6702C155.351 99.5944 155.015 99.5452 154.676 99.4955C153.614 99.3394 152.545 99.1608 151.853 98.2971C151.436 97.7768 151.261 97.1115 151.36 96.503C151.453 95.9301 151.786 95.4047 152.39 95.0899C153.896 94.3065 155.766 95.0753 157.287 95.7301C157.399 95.7787 157.51 95.8263 157.618 95.8724C159.105 96.5039 160.461 97.3376 161.575 98.5299C162.46 99.4757 163.279 100.874 163.609 102.312C163.883 103.509 163.819 104.731 163.198 105.754Z" fill="#1C1B1B">
	</path>
</svg>
